<?xml version="1.0" encoding="UTF-8"?><svg id="Layer_2" xmlns="http://www.w3.org/2000/svg" viewBox="0 0 107.15 38.59"><g id="Layer_1-2"><path d="m100.37,15.85c-3.71,2.25-7.47,4.53-11.63,5.74-4.16,1.22-8.85,1.26-12.65-.83-2.56-1.41-4.52-3.67-6.44-5.88-.48,3.09-1.52,6.1-3.04,8.83-1.37,2.46-3.49,4.89-6.3,5.04-2.32.12-4.4-1.38-6.06-3-4.57-4.44-7.64-10.39-8.62-16.68-.14-.89-1.36-1.23-2.16-.82-.8.4-1.26,1.26-1.66,2.06-2.02,4.04-3.87,8.22-4.74,12.65-.88,4.43-.73,9.17,1.13,13.29.49,1.08-1.15,2.1-2.21,1.58-1.07-.51-1.52-1.76-1.87-2.89-.6-1.97-1.19-3.95-1.6-5.96-.6-2.94-.82-5.93-1.05-8.92-.22-2.99-.45-5.97-.67-8.96-3.55,3.05-7.09,6.11-10.64,9.16,3.54-.32,6.97,2.48,7.78,5.94.82,3.46-.74,7.25-3.48,9.52-2.74,2.27-6.48,3.13-10.02,2.78-2.86-.28-5.74-1.37-7.69-3.49-3.4-3.7-3.17-9.4-2.32-14.36.52-3.03,1.19-6.04,2.01-9.01-1.03,0-2.01.43-3.01.68-1,.24-2.18.26-2.94-.43-.77-.69-.65-2.26.36-2.49C10.6,7.16,20.14,4.03,29.32.07c.87-.37,1.71.87,1.37,1.75-.34.88-1.28,1.35-2.15,1.72-6.08,2.65-12.32,4.96-18.66,6.91-.78.24-1.06,1.19-1.21,1.99-.66,3.61-1.26,7.24-1.79,10.87,7.17-2.33,13.74-6.49,18.92-11.96,1.62-1.71,3.83-3.72,5.97-2.76,1.75.78,2.14,3.05,2.29,4.96.21,2.6.42,5.2.63,7.8,1.1-4.71,2.89-9.26,5.29-13.46.9-1.56,2.16-3.25,3.96-3.31,2.26-.07,3.66,2.4,4.43,4.53,2.04,5.59,3.83,11.83,8.75,15.19.79.54,1.68.99,2.63.98,1.77-.03,3.07-1.63,3.95-3.16,1.76-3.05,2.93-6.43,3.44-9.92.2-1.41,2.25-1.77,3.45-1.01,1.2.77,1.83,2.15,2.66,3.3,3.17,4.37,9.5,5.36,14.7,3.9,5.2-1.46,9.59-4.87,13.99-7.99,1.09-.77,2.36-1.57,3.67-1.31s2.12,2.26.98,2.95c-2.08,1.26-4.16,2.53-6.24,3.79M24.39,31.52c.9-1.22,1.28-2.82,1.01-4.32-.27-1.5-1.18-2.87-2.46-3.69-2.37-1.54-5.54-1.07-8.15.01-2.61,1.08-5,2.72-7.73,3.48-.4.11-.42.66-.35,1.07.11.71.23,1.43.45,2.11.91,2.79,3.62,4.8,6.52,5.29,2.9.5,5.92-.36,8.41-1.93.87-.55,1.7-1.19,2.31-2.02m-12.72,5.44c.4.31.96.4,1.45.24.16-.05.31-.13.46-.21-.17-.18-.45-.17-.69-.15-.4.04-.81.08-1.21.12m.73-29.39c.35.47,1.06.41,1.64.3.11-.02.23-.05.27-.15-.62-.14-1.27-.19-1.91-.14m11.01-3.57c-.09.02-.18.04-.26.09-.07.05-.12.12-.15.19.49.07,1.01-.02,1.45-.24-.34-.1-.7-.11-1.05-.05m-2.81,1.45c.38.19.9.04,1.12-.33-.4-.07-.82.06-1.12.33m-3.38,1.5c-.22.15-.46.27-.71.35-.11.03-.24.09-.24.2.39.13.86-.15.95-.55m-8.36,27.96c-.25-.03-.51.04-.71.2.12.24.49.14.72,0,.05-.03.1-.07.11-.12.01-.06-.05-.13-.1-.1M15.2,6.46c-.1-.02-.21.11-.16.2.33.02.67-.08.94-.28-.25-.07-.53-.07-.78,0m-.28.73c-.09,0-.18.01-.24.07-.05.04-.08.1-.07.17.34.03.68-.03.99-.16-.22-.06-.44-.08-.67-.08m-9.94,3.42c.02-.07,0-.14-.04-.2-.24-.04-.49,0-.7.12.18.2.52.23.72.06m.34,19.09l.2.2c.12-.09.24-.18.36-.27-.14-.21-.51-.19-.63.03m4.92,5.52c.08.05.13-.1.12-.19-.18-.1-.42-.07-.57.07.11.12.29.17.45.11M3.61,10.09c-.15-.03-.31.03-.41.15.21.11.49.07.66-.09-.04-.09-.15-.14-.24-.09m57.95,16.61c.14.12.39.07.48-.1-.1-.18-.44-.12-.48.08M24.58,3.53c-.12.02-.06.23.06.23.12,0,.21-.1.28-.2-.06-.13-.26-.15-.34-.04m-11.7,20.28c.12-.04.04-.26-.09-.25-.13.01-.2.16-.19.29.08.07.22.05.28-.04m-4.68-14.4c.15.12.43.04.48-.15-.17-.1-.41-.02-.5.15m15.76,25.14c-.14-.02-.31,0-.36.13.13.14.38.12.49-.04-.04-.04-.07-.08-.11-.12M7.43,9.29c.09.03.22-.02.2-.11-.19-.06-.4-.06-.58,0,.07.13.25.17.37.1m-4.1,1.97c-.09-.13-.32-.12-.4.01.1.18.4.17.49,0m15.05-6.32c.17.1.42,0,.49-.17-.18-.05-.39.01-.51.15m4.18,11.4c.02-.07,0-.14-.03-.2-.13-.01-.3,0-.36.12.08.12.27.16.4.08m-15.18-6.47c.1.1.26.13.39.08.06-.06.06-.17,0-.23-.12.04-.24.08-.36.12m40.82,4.35c-.05.08.05.19.14.18.09,0,.17-.07.24-.14,0-.15-.24-.12-.36-.03M19.49,5.98c.09.04.19.05.28.03.05-.1-.03-.24-.14-.25-.11-.01-.21.11-.18.22m9.38-3.82c0-.1-.1-.18-.19-.17-.1.01-.17.11-.18.21.11.07.27.06.37-.03M3.66,10.9c.1-.02.09-.19,0-.23-.1-.04-.2.03-.26.12.06.09.17.14.28.12m8.94-2.04c.12.09.32-.02.32-.17-.09-.04-.18-.05-.28-.03-.04.06-.05.13-.04.2m-.65-.31c.12.04.28-.03.32-.16-.11-.13-.37-.02-.36.15m10.56-3.05c-.03-.17-.31-.13-.42,0,.09.12.3.11.38-.02m4.33-3.41c-.12-.1-.33-.02-.37.13.12.1.33.04.38-.11m16.97,4.63c.11-.05.16-.21.09-.31-.17-.03-.26.28-.09.34M10.78,36.43c-.06-.16-.29-.13-.45-.06.09.13.29.16.42.06m3.86,1.24c-.04-.18-.35-.19-.4-.02.12.01.23.02.35.03m-8.59-8.99c0,.07-.02.14-.03.21.07.01.14.03.21.04.07-.1-.04-.26-.16-.25m-.59-18.1c.08.08.22.09.31.02.03-.13-.19-.14-.29-.04m2.06.6c.06.09.23.04.22-.07-.06-.09-.23-.04-.24.07m25.63,1.17c.06-.11-.15-.23-.21-.12,0,.09.12.16.19.1m-26.61,4.59c-.07-.05-.13.09-.07.15.06,0,.12,0,.16-.06s-.03-.13-.08-.09h0Z"/></g></svg>